<?xml version="1.0" standalone="no"?>
<!DOCTYPE svg PUBLIC "-//W3C//DTD SVG 20010904//EN"
 "http://www.w3.org/TR/2001/REC-SVG-20010904/DTD/svg10.dtd">
<svg version="1.0" xmlns="http://www.w3.org/2000/svg"
 width="1347.000000pt" height="1717.000000pt" viewBox="0 0 1347.000000 1717.000000"
 preserveAspectRatio="xMidYMid meet">

<g transform="translate(0.000000,1717.000000) scale(0.100000,-0.100000)"
fill="#000000" stroke="none">
<path d="M8125 17164 c-162 -17 -550 -82 -621 -105 -38 -12 -88 -64 -101 -104
l-10 -30 -7 45 c-19 113 -78 174 -167 172 -91 -2 -124 -32 -175 -157 -79 -196
-139 -287 -214 -325 -35 -18 -40 -18 -181 0 -208 28 -227 27 -285 -13 -36 -25
-54 -47 -69 -81 l-19 -47 28 -172 c15 -95 29 -179 32 -188 3 -11 -7 -19 -38
-28 -177 -52 -499 -265 -549 -363 -32 -63 -22 -129 28 -181 57 -58 79 -66 235
-82 79 -8 158 -18 175 -21 l33 -5 -44 -88 c-166 -329 -210 -511 -150 -621 l26
-48 -27 -129 c-32 -152 -105 -378 -170 -524 -82 -185 -169 -342 -444 -796
l-123 -203 -55 78 c-144 200 -403 461 -903 907 -80 71 -167 153 -195 182 -36
37 -60 53 -87 58 -50 9 -100 -1 -132 -26 -14 -11 -114 -128 -221 -260 -280
-342 -435 -519 -640 -728 -615 -627 -1154 -994 -2630 -1793 -192 -105 -361
-200 -374 -211 -51 -47 -64 -122 -32 -193 29 -64 69 -86 170 -95 47 -4 167
-19 266 -33 236 -33 437 -54 610 -61 128 -6 160 -12 365 -66 357 -93 551 -127
850 -148 119 -9 136 -13 345 -85 203 -69 373 -116 535 -148 37 -7 136 -12 230
-12 132 1 179 5 235 21 l70 19 79 -53 c99 -68 172 -105 260 -132 93 -29 251
-29 361 -1 43 11 83 20 90 20 6 0 16 -38 23 -96 38 -298 154 -623 327 -913
233 -390 645 -823 1087 -1141 l117 -84 25 -103 c127 -504 308 -759 756 -1062
122 -82 314 -200 443 -270 42 -24 77 -46 77 -49 -1 -4 -38 -35 -83 -69 -119
-89 -273 -230 -342 -312 -164 -195 -224 -338 -246 -582 -17 -199 1 -262 87
-300 25 -11 47 -28 50 -37 31 -107 139 -232 244 -281 47 -22 69 -26 150 -26
85 0 101 3 155 29 91 45 191 153 325 351 387 573 588 753 1471 1321 97 63 129
89 142 117 35 73 12 160 -53 203 -36 24 -46 25 -258 31 l-221 6 26 51 c34 67
61 145 79 230 18 88 38 356 30 422 l-6 51 78 28 c383 136 796 386 1102 668
101 93 226 231 314 347 l71 95 84 -33 c163 -66 270 -65 407 3 115 56 243 206
309 360 65 152 114 354 139 575 57 503 42 1307 -29 1547 -20 67 -69 138 -113
164 -20 13 -39 24 -41 25 -2 2 11 27 28 57 35 62 153 316 170 369 8 23 22 40
44 50 18 9 69 43 114 77 220 165 317 368 339 703 l7 107 71 42 c112 66 195
128 279 208 219 209 313 431 378 894 l22 157 70 93 c179 238 282 475 308 706
19 167 -19 405 -101 645 -34 100 -36 123 -16 151 28 41 84 183 105 265 72 286
2 671 -151 823 -94 94 -235 124 -363 76 -121 -45 -196 -108 -545 -458 -458
-460 -604 -589 -860 -764 -225 -153 -402 -254 -840 -480 -282 -146 -353 -190
-430 -267 -96 -97 -146 -220 -195 -485 -53 -289 -75 -529 -83 -910 l-7 -300
-25 3 c-52 5 -138 45 -204 94 -238 178 -320 507 -301 1195 8 287 -4 256 95
233 25 -6 110 -13 190 -16 223 -9 331 24 430 133 201 219 75 634 -243 804
l-59 31 35 37 c60 62 72 95 72 196 0 73 -5 100 -24 143 -51 113 -161 226 -302
309 l-76 44 4 87 c4 72 1 97 -16 143 -62 163 -301 313 -596 374 -77 16 -325
28 -410 19z m428 -348 c86 -26 182 -69 222 -100 29 -23 19 -20 -80 20 -69 28
-99 35 -129 31 -110 -15 -174 -148 -113 -238 27 -40 51 -53 309 -163 109 -46
232 -103 275 -127 87 -50 196 -149 191 -175 -4 -22 -55 -39 -202 -70 -136 -29
-166 -41 -195 -83 -43 -61 -39 -139 10 -195 26 -30 51 -41 192 -86 354 -113
474 -206 485 -375 5 -74 -2 -81 -88 -97 -46 -8 -89 -7 -167 1 -196 22 -373 90
-520 199 -59 45 -74 61 -79 89 -13 69 -81 123 -154 123 -127 0 -201 -148 -139
-276 27 -57 140 -162 253 -236 l91 -60 0 -461 c0 -394 3 -479 18 -575 37 -234
93 -405 176 -534 65 -101 182 -222 269 -278 39 -25 73 -54 76 -65 4 -11 9 -61
13 -111 l6 -90 -29 -12 c-53 -21 -118 -32 -204 -32 -155 -1 -223 -29 -260
-106 -29 -59 -25 -111 25 -309 25 -99 49 -215 52 -258 l6 -80 -39 7 c-21 4
-91 30 -154 58 -212 92 -232 100 -276 100 -66 0 -110 -19 -148 -63 -41 -49
-52 -87 -66 -249 -16 -187 -42 -340 -57 -340 -19 0 -121 87 -244 206 -149 145
-179 167 -240 179 -97 18 -178 -42 -234 -173 -80 -187 -141 -292 -170 -292
-22 0 -122 97 -189 184 -35 45 -100 137 -146 206 -103 155 -113 167 -175 196
-85 40 -142 29 -300 -58 -111 -61 -232 -115 -278 -123 l-35 -7 -7 56 c-8 65 8
245 36 396 46 248 42 309 -25 368 -69 61 -90 62 -430 22 -99 -12 -190 -20
-202 -18 -19 3 5 48 233 428 438 732 543 974 641 1484 l18 90 103 57 c179 99
327 134 383 90 40 -32 88 -151 130 -324 22 -89 48 -177 59 -195 42 -72 14
-258 -61 -404 -21 -42 -68 -124 -105 -183 -184 -299 -249 -497 -249 -765 0
-121 4 -158 22 -225 73 -255 259 -428 487 -451 77 -8 202 16 299 57 69 28 70
28 101 11 125 -74 312 -79 451 -12 163 79 280 261 331 517 21 108 23 363 4
503 -7 52 -32 203 -56 335 -57 313 -68 423 -60 562 l7 112 56 32 c100 56 211
150 238 201 22 41 18 110 -8 148 -38 55 -72 74 -132 74 -48 0 -59 -4 -110 -44
-170 -135 -192 -143 -381 -144 -85 -1 -162 4 -195 12 -88 22 -190 55 -190 63
0 4 15 29 33 55 32 48 33 49 82 48 33 -1 94 -18 175 -49 145 -54 213 -61 274
-25 42 26 80 98 80 155 0 55 -11 182 -17 192 -9 15 -30 311 -23 336 6 27 32
37 248 101 127 38 178 89 178 178 0 81 -31 118 -170 209 -187 122 -260 179
-260 203 0 24 48 154 115 311 61 141 66 211 21 269 -38 51 -105 80 -160 72
-22 -4 -133 -31 -246 -61 -254 -67 -347 -88 -364 -82 -10 4 -46 108 -46 134 0
4 13 -6 28 -21 52 -48 83 -50 259 -16 307 61 383 70 578 66 161 -3 189 -6 268
-30z m4110 -124 c64 -70 99 -369 61 -516 -43 -169 -218 -450 -502 -806 -124
-156 -417 -455 -593 -605 -133 -113 -142 -126 -147 -195 -3 -45 0 -61 20 -89
13 -19 38 -43 55 -54 38 -22 110 -25 146 -5 39 20 306 258 446 398 152 151
288 308 427 492 57 76 105 134 108 130 3 -5 14 -54 25 -109 27 -130 27 -253 1
-363 -82 -341 -462 -788 -902 -1062 -116 -72 -320 -168 -473 -223 -253 -90
-264 -96 -285 -176 -22 -81 29 -167 113 -190 39 -11 51 -9 162 29 184 62 297
107 445 180 135 66 365 213 460 292 27 23 50 37 50 31 0 -27 -56 -183 -86
-241 -143 -273 -457 -454 -1209 -696 -182 -58 -214 -72 -242 -101 -92 -97 -19
-263 116 -263 30 0 511 156 645 209 43 18 80 30 82 29 11 -12 -31 -174 -61
-234 -85 -173 -352 -331 -725 -428 -199 -52 -321 -67 -549 -67 -185 0 -201 -1
-242 -22 -47 -24 -89 -88 -89 -137 0 -49 42 -113 90 -138 44 -23 49 -24 275
-19 133 3 272 12 330 21 95 15 318 66 359 82 25 10 20 -5 -37 -106 -59 -105
-146 -191 -222 -220 -125 -48 -342 -38 -659 31 -154 34 -188 33 -236 -8 -91
-76 -78 -206 25 -258 22 -12 118 -36 213 -55 97 -20 172 -39 172 -46 0 -29
-50 -56 -122 -67 -136 -19 -327 29 -638 163 -197 84 -230 94 -273 86 -70 -13
-127 -84 -127 -158 0 -60 38 -109 110 -145 97 -48 394 -168 482 -195 43 -12
78 -26 78 -29 0 -3 -24 -26 -52 -50 -29 -24 -119 -108 -199 -186 l-146 -143
-174 -30 c-334 -57 -991 -130 -1168 -130 -164 0 -709 32 -1001 58 l-75 7 -5
110 c-4 86 -9 117 -25 145 -39 66 -58 71 -353 92 -147 10 -276 21 -288 23 -19
4 -22 16 -33 105 -21 188 -11 318 45 600 41 207 42 210 58 210 7 0 73 30 146
67 128 64 134 66 147 47 8 -10 48 -68 90 -129 152 -219 267 -336 393 -401 48
-24 66 -28 140 -28 70 0 93 4 129 23 91 48 199 176 257 306 10 22 20 42 21 44
2 3 27 -18 56 -46 101 -98 203 -175 286 -216 76 -38 91 -42 160 -42 65 0 83 4
122 27 119 70 178 204 210 476 8 66 16 101 23 98 125 -51 182 -71 249 -88 163
-41 296 -6 364 95 46 69 57 117 57 237 -1 95 -12 166 -61 386 -4 19 1 22 61
28 36 3 96 16 133 27 187 58 275 173 277 366 l1 92 35 6 c59 10 138 54 168 93
77 98 91 174 92 502 0 406 50 840 122 1075 18 57 32 79 73 120 52 52 85 71
540 307 509 265 805 464 1139 767 66 60 261 251 431 423 285 288 409 398 450
398 6 0 19 -8 28 -18z m-5275 -447 c80 -19 133 -46 187 -96 132 -121 166 -444
68 -646 -59 -121 -208 -232 -351 -262 -161 -33 -347 20 -470 134 -97 90 -142
201 -142 355 0 265 134 451 370 514 73 19 257 20 338 1z m104 -1809 c111 -34
244 -56 334 -56 l74 0 0 -119 0 -119 -85 -7 c-113 -10 -192 5 -290 55 -130 65
-132 68 -139 184 -6 85 -5 98 9 93 8 -4 52 -18 97 -31z m13 -583 c76 -26 89
-28 258 -28 170 0 178 -1 182 -20 20 -97 23 -121 15 -129 -5 -5 -96 -9 -202
-10 -173 -1 -200 1 -263 21 -68 22 -225 106 -225 121 0 4 12 35 27 69 l27 62
51 -29 c27 -16 86 -41 130 -57z m-3291 -117 c355 -318 626 -588 736 -734 70
-93 113 -182 118 -248 4 -52 1 -62 -111 -292 -310 -639 -456 -1172 -480 -1762
l-2 -55 -85 -29 c-112 -39 -239 -42 -312 -8 -27 11 -48 25 -48 29 0 4 17 19
37 33 50 33 206 164 315 262 98 90 124 136 112 201 -9 58 -66 117 -121 124
-77 10 -103 -2 -204 -93 -231 -210 -394 -323 -542 -377 -69 -25 -101 -31 -205
-35 -139 -5 -303 16 -411 54 -8 3 28 24 80 47 172 78 391 212 624 382 184 135
502 391 522 421 25 39 23 125 -3 161 -48 65 -138 93 -197 61 -12 -6 -103 -75
-202 -153 -558 -440 -860 -616 -1185 -691 -119 -28 -344 -42 -474 -29 l-79 7
103 39 c405 153 813 420 1455 954 256 213 282 238 296 285 34 112 -66 218
-185 196 -25 -5 -89 -51 -228 -168 -512 -428 -804 -642 -1093 -803 -409 -228
-719 -307 -1200 -306 -197 0 -529 21 -542 34 -2 3 85 53 194 112 746 406 1359
790 1738 1088 447 352 840 751 1290 1309 61 75 112 137 114 137 2 1 80 -68
175 -153z m3036 -286 c171 -86 279 -105 560 -97 l208 5 6 -30 c12 -61 6 -289
-10 -366 -20 -99 -71 -207 -118 -252 -35 -33 -41 -35 -109 -35 -69 0 -72 1
-86 30 -10 21 -16 88 -20 240 -7 232 -12 253 -73 297 -47 33 -130 32 -177 -1
-70 -50 -81 -125 -62 -411 5 -70 4 -109 -3 -116 -21 -22 -127 -54 -179 -54
-100 0 -184 82 -222 214 -14 48 -16 85 -12 185 6 152 28 234 98 379 l50 103
42 -29 c23 -16 71 -44 107 -62z m-1432 -1097 c-28 -170 -35 -392 -14 -484 22
-100 67 -175 128 -214 40 -25 47 -34 43 -55 -2 -14 -16 -85 -30 -158 -38 -204
-48 -308 -43 -493 l4 -171 -44 6 c-81 11 -276 58 -367 88 -49 16 -139 54 -200
83 -179 88 -435 262 -435 297 0 34 81 334 126 468 58 170 115 311 211 518 62
133 79 162 97 163 11 0 131 13 266 28 135 16 252 29 261 30 14 1 14 -10 -3
-106z m4947 -1185 c-12 -67 -22 -294 -14 -322 21 -73 77 -116 153 -116 110 0
151 62 161 245 7 114 21 223 24 180 1 -11 6 -74 11 -140 13 -161 13 -757 0
-936 -14 -194 -36 -353 -65 -477 -61 -254 -179 -432 -286 -432 -40 0 -119 26
-119 40 0 4 26 63 59 131 238 503 335 1014 231 1225 -60 122 -158 179 -306
178 l-82 0 -4 75 c-3 51 -12 90 -26 118 l-22 43 30 56 c17 32 35 74 42 95 9
32 16 39 42 43 17 3 56 9 86 14 93 16 92 16 85 -20z m-5860 -353 c372 -246
753 -351 1460 -405 77 -6 163 -13 191 -16 l51 -5 6 -667 c4 -367 10 -882 14
-1145 l6 -478 -25 10 c-97 37 -351 196 -553 346 -564 420 -977 933 -1146 1422
-83 242 -129 588 -114 866 4 75 8 137 9 137 1 0 46 -29 101 -65z m5295 -67 c0
-7 -22 -52 -50 -100 -27 -48 -50 -92 -50 -97 0 -5 -48 -49 -107 -99 -127 -106
-239 -219 -253 -256 -33 -88 26 -190 121 -211 61 -14 103 11 227 129 167 159
300 249 437 296 82 28 113 27 121 -6 11 -45 -5 -213 -31 -329 -93 -407 -302
-835 -558 -1140 -262 -312 -690 -615 -1102 -778 -103 -41 -326 -110 -332 -103
-7 7 69 366 132 623 121 493 247 802 446 1100 226 337 681 804 921 946 68 40
78 43 78 25z m-1176 -670 c-4 -7 -36 -53 -70 -103 -245 -359 -390 -721 -533
-1340 -68 -292 -133 -615 -127 -630 3 -8 4 -15 3 -15 -1 -1 -85 -11 -185 -24
-198 -25 -216 -32 -259 -96 -44 -64 -22 -161 47 -207 40 -28 91 -29 275 -7
133 16 355 50 389 61 18 5 19 0 13 -133 -4 -77 -13 -170 -22 -209 -46 -212
-180 -337 -439 -410 -72 -20 -189 -60 -260 -89 -72 -29 -154 -58 -182 -65
l-50 -12 -151 85 c-570 320 -804 504 -945 741 -37 62 -101 205 -95 212 2 2 38
-13 80 -32 242 -112 501 -157 707 -124 156 24 239 50 274 83 81 76 62 201 -38
253 -34 18 -102 14 -216 -12 -72 -17 -273 -25 -286 -12 -5 4 -34 2046 -29
2054 1 1 73 -4 161 -12 140 -12 446 -31 834 -51 72 -3 176 -1 245 6 204 19
655 70 750 84 121 18 117 18 109 4z m-475 -3410 c-567 -394 -763 -587 -1099
-1083 -116 -171 -222 -295 -252 -295 -9 0 -33 16 -54 35 -33 31 -36 39 -31 74
10 79 122 203 379 419 81 68 149 130 153 140 39 95 14 176 -67 218 -38 19
-118 18 -148 -3 -40 -27 -257 -211 -328 -278 -53 -49 -62 -54 -49 -30 69 135
307 359 551 519 160 105 237 142 406 196 91 29 199 66 240 82 75 30 216 55
319 57 l55 1 -75 -52z"/>
<path d="M7085 16183 c-126 -45 -224 -132 -282 -250 -124 -251 40 -545 331
-594 189 -32 389 68 467 235 80 170 47 346 -91 487 -83 85 -184 132 -294 136
-60 3 -94 -1 -131 -14z m220 -167 c58 -27 128 -93 158 -150 30 -57 30 -165 0
-222 -48 -90 -128 -142 -233 -151 -164 -15 -310 111 -310 267 0 68 25 124 82
186 84 92 200 119 303 70z"/>
<path d="M7135 15906 c-84 -37 -117 -133 -75 -216 23 -45 50 -67 103 -81 105
-28 212 77 187 185 -22 97 -126 151 -215 112z"/>
<path d="M4100 13570 c-12 -12 -20 -33 -20 -55 0 -22 8 -43 20 -55 12 -12 33
-20 55 -20 45 0 75 29 75 73 0 66 -84 103 -130 57z"/>
<path d="M4470 13210 c-12 -12 -20 -33 -20 -55 0 -45 29 -75 73 -75 68 0 103
83 54 128 -30 28 -80 29 -107 2z"/>
<path d="M4780 12863 c-59 -76 47 -167 115 -98 30 30 32 64 4 99 -29 37 -89
37 -119 -1z"/>
<path d="M5735 11485 c-70 -69 25 -177 100 -113 38 34 39 82 1 115 -35 30 -71
29 -101 -2z"/>
<path d="M5655 11098 c-38 -34 -39 -82 -1 -115 35 -30 71 -29 101 2 70 69 -25
177 -100 113z"/>
<path d="M6360 10030 c-61 -61 0 -163 78 -131 54 22 67 87 27 126 -30 31 -77
33 -105 5z"/>
<path d="M6415 9592 c-50 -10 -75 -64 -51 -111 25 -48 82 -56 121 -16 30 29
32 64 5 97 -21 28 -43 36 -75 30z"/>
<path d="M6370 9130 c-43 -43 -31 -109 26 -130 46 -18 104 25 104 78 0 58 -88
94 -130 52z"/>
<path d="M6400 8677 c-76 -38 -51 -147 35 -147 35 0 75 42 75 78 0 52 -64 92
-110 69z"/>
<path d="M9962 9147 c-48 -50 -15 -127 53 -127 45 0 75 29 75 73 0 68 -83 103
-128 54z"/>
<path d="M9675 8878 c-89 -52 -27 -179 70 -142 23 9 46 60 39 88 -12 48 -71
77 -109 54z"/>
<path d="M9275 8585 c-33 -32 -33 -74 0 -105 65 -61 161 10 121 89 -25 48 -82
56 -121 16z"/>
<path d="M8915 8405 c-31 -30 -32 -66 -2 -101 59 -69 164 4 123 85 -25 48 -82
56 -121 16z"/>
<path d="M11735 8082 c-74 -34 -124 -112 -132 -202 -13 -141 97 -190 219 -97
66 51 103 118 103 189 0 51 -3 61 -31 89 -41 40 -101 48 -159 21z"/>
<path d="M11985 7474 c-196 -48 -435 -275 -532 -506 -36 -86 -39 -198 -6 -244
38 -53 82 -67 187 -61 203 11 496 158 612 306 141 179 102 401 -84 484 -44 19
-138 30 -177 21z m124 -172 c19 -10 43 -34 53 -53 56 -101 -52 -240 -265 -344
-105 -51 -240 -95 -294 -95 -33 0 -31 39 7 119 92 194 309 391 430 391 19 0
51 -8 69 -18z"/>
<path d="M3565 7108 c-129 -45 -169 -237 -86 -415 36 -76 121 -165 175 -183
73 -24 139 12 165 89 27 81 4 317 -39 402 -27 53 -75 97 -118 109 -44 12 -58
12 -97 -2z m94 -241 c5 -29 12 -81 16 -116 8 -78 -5 -78 -48 -2 -24 42 -30 66
-31 115 -1 33 3 70 7 81 8 20 9 20 27 -3 10 -12 23 -46 29 -75z"/>
<path d="M10082 7071 c-95 -45 -182 -172 -223 -326 -30 -114 -31 -292 -3 -355
28 -60 54 -81 106 -87 59 -6 119 34 195 129 130 163 199 317 190 424 -13 175
-137 275 -265 215z m98 -171 c19 -46 7 -118 -31 -193 -35 -70 -138 -217 -151
-217 -13 0 -9 108 8 187 19 92 53 165 102 216 44 45 56 46 72 7z"/>
<path d="M3010 5927 c-74 -26 -94 -125 -44 -216 37 -69 130 -156 182 -172 121
-36 184 70 120 201 -72 148 -169 218 -258 187z"/>
<path d="M3717 5806 c-198 -83 -256 -250 -155 -450 63 -125 184 -215 344 -256
225 -58 314 0 322 209 7 168 -40 300 -144 405 -105 108 -247 143 -367 92z
m220 -173 c56 -44 100 -107 118 -166 17 -56 22 -214 7 -229 -12 -12 -142 16
-206 45 -69 32 -116 75 -149 136 -38 69 -44 136 -18 178 49 78 174 96 248 36z"/>
<path d="M11025 5613 c-172 -87 -301 -164 -389 -230 -80 -61 -209 -193 -271
-276 -38 -52 -51 -64 -58 -52 -20 37 -38 162 -44 314 -7 195 -20 232 -93 269
-24 12 -55 22 -68 22 -30 0 -238 -91 -401 -176 -228 -118 -392 -237 -630 -455
-194 -179 -274 -249 -295 -261 -18 -10 -19 -7 -12 58 4 38 18 132 32 209 38
214 39 243 12 289 -28 47 -78 76 -132 76 -46 0 -417 -123 -656 -217 -287 -113
-482 -223 -678 -382 -52 -42 -101 -80 -108 -86 -10 -7 -45 22 -136 111 -287
281 -484 377 -849 413 -171 17 -300 16 -336 -2 -77 -40 -105 -143 -60 -220 21
-35 39 -50 93 -76 140 -67 185 -113 186 -194 0 -34 -5 -46 -31 -69 -26 -23
-40 -28 -85 -28 -134 0 -321 94 -713 359 -229 154 -241 161 -287 161 -52 0
-119 -40 -140 -84 -19 -40 -20 -112 -3 -143 7 -12 53 -66 102 -120 210 -229
305 -350 356 -458 72 -151 31 -208 -341 -470 -439 -311 -630 -468 -1235 -1019
-241 -219 -285 -270 -285 -328 0 -40 33 -100 72 -133 98 -83 1046 -496 1469
-640 1130 -384 2147 -458 3282 -240 909 176 1950 522 3222 1072 835 361 1436
653 1775 861 118 72 145 94 167 136 20 38 12 119 -14 154 -25 34 -346 269
-576 422 -406 271 -665 385 -1172 515 -326 83 -393 104 -468 143 -71 36 -113
77 -123 118 -15 61 48 204 177 397 43 65 81 134 85 152 12 64 -25 134 -86 165
-64 33 -92 27 -255 -57z m-1071 -400 c36 -248 105 -431 208 -549 41 -47 115
-70 175 -54 72 17 95 41 195 188 51 75 132 177 180 227 l86 90 -5 -96 c-5 -81
-2 -108 16 -167 46 -151 175 -267 382 -343 46 -17 206 -62 354 -100 438 -113
630 -184 879 -324 127 -71 347 -215 509 -332 l98 -72 -63 -37 c-356 -211
-1559 -757 -2353 -1069 -1141 -448 -2104 -718 -2895 -809 -630 -74 -1290 -35
-1920 110 -558 130 -1011 295 -1823 668 l-78 35 63 59 c431 402 801 710 1123
937 258 181 358 259 439 346 145 154 182 294 130 486 -6 23 -6 23 67 -7 242
-100 446 -86 594 43 109 94 160 280 119 425 -6 21 -4 22 22 16 53 -12 188 -83
259 -135 39 -29 151 -135 250 -235 161 -163 184 -182 221 -188 59 -10 101 11
202 101 233 209 393 314 637 418 127 55 436 167 442 162 2 -3 -2 -38 -8 -78
-19 -119 -17 -265 5 -328 41 -118 155 -190 283 -178 117 11 207 70 458 302
273 251 397 346 595 454 52 29 102 56 110 61 28 17 39 10 44 -27z"/>
<path d="M9046 4169 c-59 -47 -69 -31 455 -716 264 -345 492 -640 507 -655 25
-28 61 -35 97 -22 25 10 45 63 34 92 -12 32 -975 1288 -1002 1307 -30 21 -59
19 -91 -6z"/>
<path d="M7835 3870 c-47 -51 -54 -41 475 -730 271 -355 501 -650 509 -657 44
-34 121 7 121 64 0 23 -108 170 -486 663 -267 349 -495 645 -507 658 -27 29
-86 30 -112 2z"/>
<path d="M6292 3847 c-47 -50 -58 -34 529 -812 303 -401 560 -740 571 -752 47
-50 128 -17 128 52 0 29 -20 62 -123 197 -68 90 -316 420 -551 733 -236 314
-437 578 -448 588 -29 25 -80 22 -106 -6z"/>
<path d="M12251 2376 c-201 -98 -419 -189 -791 -328 -1707 -640 -2945 -957
-3946 -1008 -653 -34 -1396 69 -2103 290 -308 97 -857 297 -946 345 -39 21
-59 26 -94 22 -80 -9 -141 -77 -141 -157 0 -44 13 -68 186 -346 500 -801 693
-1046 896 -1139 86 -39 190 -46 793 -52 1526 -15 2592 75 3572 303 724 168
1584 460 2282 775 354 161 473 257 530 431 37 112 125 674 124 794 0 80 -75
154 -156 154 -21 0 -94 -30 -206 -84z m-10 -512 c-37 -235 -48 -273 -97 -321
-90 -88 -657 -337 -1214 -534 -107 -38 -204 -73 -216 -78 -40 -17 -471 -151
-629 -195 -822 -231 -1507 -336 -2590 -398 -259 -15 -1962 -19 -2028 -5 -53
11 -184 138 -292 282 -103 137 -405 595 -393 595 3 0 87 -30 189 -66 596 -212
1148 -339 1739 -401 239 -25 868 -25 1105 0 717 76 1463 243 2396 536 574 181
1532 527 1919 694 105 45 125 51 128 37 2 -9 -6 -74 -17 -146z"/>
</g>
</svg>
